<?xml version="1.0" encoding="UTF-8"?><svg id="Layer_2" xmlns="http://www.w3.org/2000/svg" xmlns:xlink="http://www.w3.org/1999/xlink" viewBox="0 0 512 512"><defs><style>.cls-1{fill:url(#linear-gradient);}.cls-2{fill:url(#linear-gradient-3);}.cls-3{fill:url(#linear-gradient-2);}</style><linearGradient id="linear-gradient" x1="21.88" y1="21.88" x2="490.12" y2="490.12" gradientUnits="userSpaceOnUse"><stop offset="0" stop-color="#141a2a"/><stop offset="1" stop-color="#393d46"/></linearGradient><linearGradient id="linear-gradient-2" x1="256.83" y1="136.36" x2="462.94" y2="342.46" gradientUnits="userSpaceOnUse"><stop offset="0" stop-color="#ce9ffc"/><stop offset="1" stop-color="#0070f5"/></linearGradient><linearGradient id="linear-gradient-3" x1="61.83" y1="182.53" x2="215.21" y2="335.91" gradientUnits="userSpaceOnUse"><stop offset="0" stop-color="#ffb026"/><stop offset="1" stop-color="#f58b00"/></linearGradient></defs><g id="Layer_1-2"><rect class="cls-1" width="512" height="512" rx="74.7" ry="74.7"/><path class="cls-3" d="M240.66,152.53h44.83l14.05,98.86c2.66,22.15,5.57,44.3,8.24,66.46h1.21c3.88-22.15,7.88-44.56,11.88-66.46l21.57-98.86h37.17l21.57,98.86c4,21.38,8,44.05,12,66.46h1.21c2.66-22.41,5.45-44.82,8.12-66.46l14.05-98.86h41.79l-35.4,209.94h-54.91l-19.86-96.88c-3.15-16.23-5.82-32.98-8-48.69h-1.21c-2.42,15.71-4.97,32.46-8.12,48.69l-19.25,96.88h-53.94l-36.98-209.94Z"/><path class="cls-2" d="M37.21,258.56c0-69.99,46.29-110.68,102.66-110.68,30.59,0,52.24,13.09,66.37,27.35l-24.66,29.98c-10.5-9.71-21.89-16.97-40.16-16.97-33.01,0-56.33,25.9-56.33,68.76s19.94,69.53,59.97,69.53c8.79,0,17.84-2.33,23.14-6.59v-37.39h-35.48v-38.16h77.01v96.97c-14.52,14.26-40.06,25.53-69.48,25.53-58.07,0-103.06-37.31-103.06-108.34Z"/></g></svg>