<?xml version="1.0" encoding="utf-8"?>
<svg version="1.1" id="settings-icon" xmlns="http://www.w3.org/2000/svg" xmlns:xlink="http://www.w3.org/1999/xlink" x="0px" y="0px"
	 viewBox="0 0 512 512" style="enable-background:new 0 0 512 512;" xml:space="preserve">
<path d="M465.6,187.4c-6.1-0.6-12.2-2-17.9-4.4c-31.9-13-47.2-49.5-34.1-81.4c4.7-12.2,0.9-26-9.3-34.1
	c-19.8-15.7-41.9-28.1-65.6-36.8c-12-4.5-25.5-0.7-33.4,9.3c-3.1,4-6.7,7.6-10.7,10.7c-11.5,9-25,13.3-38.5,13.3
	c-13.5,0-27.1-4.3-38.5-13.3c-4-3.1-7.6-6.7-10.7-10.7c-8-10-21.5-13.7-33.4-9.3c-23.7,8.7-45.8,21.1-65.6,36.8
	c-10.2,8.1-14,21.9-9.3,34.1c13,31.9-2.2,68.3-34.1,81.4c-5.7,2.3-11.7,3.8-17.9,4.4c-12.9,1.4-23.5,11.1-25.9,23.8
	C17.5,225.9,16,241,16,256s1.5,30.1,4.5,44.8c2.5,12.8,13,22.5,25.9,23.8c6.1,0.6,12.2,2,17.9,4.4c31.9,13,47.2,49.5,34.1,81.4
	c-4.7,12.2-0.9,26,9.3,34.1c19.8,15.7,41.9,28.1,65.6,36.8c12,4.5,25.5,0.7,33.4-9.3c3.1-4,6.7-7.6,10.7-10.7
	c11.5-9,25-13.3,38.5-13.3c13.5,0,27.1,4.3,38.5,13.3c4,3.1,7.6,6.7,10.7,10.7c8,10,21.5,13.7,33.4,9.3
	c23.7-8.7,45.8-21.1,65.6-36.8c10.2-8.1,14-21.9,9.3-34.1c-13-31.9,2.2-68.3,34.1-81.4c5.7-2.3,11.7-3.8,17.9-4.4
	c12.9-1.4,23.5-11.1,25.9-23.8c3-14.7,4.5-29.8,4.5-44.8s-1.5-30.1-4.5-44.8C489.1,198.4,478.5,188.7,465.6,187.4z M256,336L256,336
	L256,336c-44.2,0-80-35.8-80-80s35.8-80,80-80h0h0c44.2,0,80,35.8,80,80S300.2,336,256,336z"/>
</svg>
